<svg width="56" height="44" viewBox="0 0 56 44" fill="none" xmlns="http://www.w3.org/2000/svg">
<g clip-path="url(#clip0)">
<path d="M10.1497 43.6501V40.7638C10.1497 39.6597 9.4772 38.9367 8.32267 38.9367C7.74541 38.9367 7.11771 39.1273 6.68616 39.755C6.34989 39.2282 5.86791 38.9367 5.14493 38.9367C4.66294 38.9367 4.18096 39.0825 3.79985 39.6093V39.032H2.79105V43.6501H3.79985V41.1001C3.79985 40.2818 4.2314 39.8951 4.90394 39.8951C5.57648 39.8951 5.91274 40.3266 5.91274 41.1001V43.6501H6.92155V41.1001C6.92155 40.2818 7.40354 39.8951 8.02563 39.8951C8.69817 39.8951 9.03444 40.3266 9.03444 41.1001V43.6501H10.1497ZM25.1137 39.032H23.4772V37.6365H22.4684V39.032H21.5549V39.9455H22.4684V42.064C22.4684 43.1233 22.8999 43.7454 24.0545 43.7454C24.486 43.7454 24.968 43.5997 25.3043 43.4091L25.0128 42.5404C24.7214 42.731 24.3851 42.7814 24.1441 42.7814C23.6621 42.7814 23.4716 42.49 23.4716 42.0136V39.9455H25.1081V39.032H25.1137ZM33.6774 38.9311C33.1001 38.9311 32.7134 39.2226 32.4724 39.6037V39.0264H31.4636V43.6445H32.4724V41.044C32.4724 40.2762 32.8087 39.8391 33.4364 39.8391C33.6269 39.8391 33.8679 39.8895 34.0641 39.9343L34.3555 38.9704C34.1537 38.9311 33.8679 38.9311 33.6774 38.9311ZM20.7366 39.4131C20.2546 39.0768 19.5821 38.9311 18.8591 38.9311C17.7046 38.9311 16.9368 39.5084 16.9368 40.4219C16.9368 41.1897 17.514 41.6269 18.5228 41.767L19.0048 41.8174C19.5316 41.9127 19.8231 42.0584 19.8231 42.2994C19.8231 42.6357 19.4364 42.8767 18.7638 42.8767C18.0913 42.8767 17.5589 42.6357 17.2226 42.3947L16.7406 43.1625C17.2674 43.5492 17.9904 43.7398 18.7134 43.7398C20.0585 43.7398 20.8319 43.1121 20.8319 42.249C20.8319 41.4307 20.2042 40.9992 19.2458 40.8535L18.7638 40.803C18.3323 40.7526 17.996 40.6573 17.996 40.3715C17.996 40.0352 18.3323 39.8447 18.8647 39.8447C19.442 39.8447 20.0192 40.0857 20.3107 40.2314L20.7366 39.4131ZM47.5765 38.9311C46.9992 38.9311 46.6125 39.2226 46.3715 39.6037V39.0264H45.3627V43.6445H46.3715V41.044C46.3715 40.2762 46.7078 39.8391 47.3355 39.8391C47.526 39.8391 47.767 39.8895 47.9632 39.9343L48.2546 38.9816C48.0585 38.9311 47.7726 38.9311 47.5765 38.9311ZM34.6862 41.3411C34.6862 42.7366 35.6501 43.7454 37.1409 43.7454C37.8135 43.7454 38.2955 43.5997 38.7774 43.2185L38.2955 42.4003C37.9087 42.6917 37.5276 42.8318 37.0905 42.8318C36.2722 42.8318 35.695 42.2546 35.695 41.3411C35.695 40.4724 36.2722 39.8951 37.0905 39.8503C37.522 39.8503 37.9087 39.996 38.2955 40.2818L38.7774 39.4636C38.2955 39.0768 37.8135 38.9367 37.1409 38.9367C35.6501 38.9311 34.6862 39.9455 34.6862 41.3411ZM44.0176 41.3411V39.032H43.0088V39.6093C42.6726 39.1777 42.1906 38.9367 41.5629 38.9367C40.2626 38.9367 39.2538 39.9455 39.2538 41.3411C39.2538 42.7366 40.2626 43.7454 41.5629 43.7454C42.2354 43.7454 42.7174 43.5044 43.0088 43.0728V43.6501H44.0176V41.3411ZM40.3131 41.3411C40.3131 40.5228 40.8399 39.8503 41.7086 39.8503C42.5268 39.8503 43.1041 40.478 43.1041 41.3411C43.1041 42.1593 42.5268 42.8318 41.7086 42.8318C40.8455 42.7814 40.3131 42.1537 40.3131 41.3411ZM28.241 38.9311C26.8959 38.9311 25.932 39.8951 25.932 41.3354C25.932 42.7814 26.8959 43.7398 28.2915 43.7398C28.964 43.7398 29.6365 43.5492 30.169 43.1121L29.687 42.3891C29.3003 42.6805 28.8183 42.8711 28.3419 42.8711C27.7142 42.8711 27.0921 42.5796 26.9464 41.767H30.3595C30.3595 41.6213 30.3595 41.526 30.3595 41.3803C30.4043 39.8951 29.5356 38.9311 28.241 38.9311ZM28.241 39.7998C28.8687 39.7998 29.3003 40.1865 29.3955 40.9039H26.9912C27.0865 40.2818 27.518 39.7998 28.241 39.7998ZM53.3043 41.3411V37.205H52.2955V39.6093C51.9592 39.1777 51.4772 38.9367 50.8495 38.9367C49.5493 38.9367 48.5405 39.9455 48.5405 41.3411C48.5405 42.7366 49.5493 43.7454 50.8495 43.7454C51.522 43.7454 52.004 43.5044 52.2955 43.0728V43.6501H53.3043V41.3411ZM49.5997 41.3411C49.5997 40.5228 50.1265 39.8503 50.9952 39.8503C51.8135 39.8503 52.3907 40.478 52.3907 41.3411C52.3907 42.1593 51.8135 42.8318 50.9952 42.8318C50.1265 42.7814 49.5997 42.1537 49.5997 41.3411ZM15.8271 41.3411V39.032H14.8183V39.6093C14.482 39.1777 14 38.9367 13.3723 38.9367C12.0721 38.9367 11.0633 39.9455 11.0633 41.3411C11.0633 42.7366 12.0721 43.7454 13.3723 43.7454C14.0449 43.7454 14.5268 43.5044 14.8183 43.0728V43.6501H15.8271V41.3411ZM12.0777 41.3411C12.0777 40.5228 12.6045 39.8503 13.4732 39.8503C14.2914 39.8503 14.8687 40.478 14.8687 41.3411C14.8687 42.1593 14.2914 42.8318 13.4732 42.8318C12.6045 42.7814 12.0777 42.1537 12.0777 41.3411Z" fill="black"/>
<path d="M35.5548 3.9592H20.4003V31.1858H35.5548V3.9592Z" fill="#FF5A00"/>
<path d="M21.4091 17.5725C21.4091 12.0408 24.0096 7.13131 28 3.95917C25.0633 1.65012 21.3587 0.254608 17.3179 0.254608C7.7454 0.254608 0 8 0 17.5725C0 27.1449 7.7454 34.8903 17.3179 34.8903C21.3587 34.8903 25.0633 33.4948 28 31.1858C24.004 28.0585 21.4091 23.1041 21.4091 17.5725Z" fill="#EB001B"/>
<path d="M56 17.5725C56 27.1449 48.2546 34.8903 38.6821 34.8903C34.6413 34.8903 30.9367 33.4948 28 31.1858C32.0408 28.008 34.5909 23.1041 34.5909 17.5725C34.5909 12.0408 31.9904 7.13131 28 3.95917C30.9311 1.65012 34.6357 0.254608 38.6765 0.254608C48.2546 0.254608 56 8.05045 56 17.5725Z" fill="#F79E1B"/>
</g>
<defs>
<clipPath id="clip0">
<rect width="56" height="43.4908" fill="white" transform="translate(0 0.254608)"/>
</clipPath>
</defs>
</svg>
