<svg width="73" height="21" viewBox="0 0 73 21" fill="none" xmlns="http://www.w3.org/2000/svg">
<path fill-rule="evenodd" clip-rule="evenodd" d="M7.02788 0.36838C7.67255 0.364523 9.58847 0.191965 10.4 2.93093C10.9467 4.77593 11.8175 7.79813 13.0124 11.9975H13.4991C14.7806 7.57023 15.6609 4.54803 16.14 2.93093C16.96 0.163434 19.01 0.368434 19.83 0.368434L26.1565 0.368442V20.0484H19.7084V8.45067H19.276L15.6815 20.0484H10.8301L7.23554 8.44207H6.80315V20.0484H0.355011V0.368442L7.02788 0.36838ZM35.4159 0.368442V11.9748H35.9303L40.3027 2.43097C41.1515 0.531725 42.9604 0.368442 42.9604 0.368442H49.2003V20.0484H42.6175V8.44207H42.1031L37.8164 17.9859C36.9677 19.8766 35.073 20.0484 35.073 20.0484H28.8331V0.368442H35.4159ZM71.9534 9.7205C71.0352 12.3226 68.1516 14.1861 64.959 14.1861H58.0557V20.0484H51.7958V9.7205H71.9534Z" fill="#0F754E"/>
<path fill-rule="evenodd" clip-rule="evenodd" d="M65.261 0.368408H51.4675C51.7958 4.74984 55.569 8.50064 59.475 8.50064H72.3884C73.1336 4.85915 70.5683 0.368408 65.261 0.368408Z" fill="url(#paint0_linear)"/>
<defs>
<linearGradient id="paint0_linear" x1="72.515" y1="5.48393" x2="51.4675" y2="5.48393" gradientUnits="userSpaceOnUse">
<stop stop-color="#1F5CD7"/>
<stop offset="1" stop-color="#02AEFF"/>
</linearGradient>
</defs>
</svg>
