<?xml version="1.0" standalone="no"?>
<!DOCTYPE svg PUBLIC "-//W3C//DTD SVG 1.1//EN" "http://www.w3.org/Graphics/SVG/1.1/DTD/svg11.dtd">
<svg xmlns="http://www.w3.org/2000/svg">
<metadata>Copyright (C) 2016 by original authors @ fontello.com</metadata>
<defs>
<font id="tl" horiz-adv-x="1000" >
<font-face font-family="tl" font-weight="400" font-stretch="normal" units-per-em="1000" ascent="850" descent="-150" />
<missing-glyph horiz-adv-x="1000" />
<glyph glyph-name="acc" unicode="&#xe800;" d="M814 116a1357 1357 0 0 0-16 56c-5 20-11 41-17 63a468 468 0 0 1-49 102c-23 36-53 60-91 71h-54c-11 0-18-2-20-7a55 55 0 0 0-12-15c-16-11-35-22-57-35a143 143 0 0 0-73-19c-32 0-59 5-82 15a176 176 0 0 0-58 39 280 280 0 0 1-18 15c-7 5-15 7-26 7h-21c-33 0-58-9-76-27a222 222 0 0 1-43-60c-16-27-31-60-46-101a562 562 0 0 1-29-125c-6-22-13-45-20-70-7-25-8-48-2-70 5-21 17-38 33-48a158 158 0 0 1 60-23c23-4 49-6 78-5a8015 8015 0 0 0 88 0h313c38 0 78 0 120-1 43-1 75 7 97 23 32 22 45 52 39 91a4610 4610 0 0 0-18 124z m-378 270c27 3 52 11 76 25a209 209 0 0 1 60 56c17 22 30 49 39 79 8 30 12 63 9 99a276 276 0 0 1-22 78 240 240 0 0 1-44 69 198 198 0 0 1-64 45 149 149 0 0 1-76 12c-37 0-68-9-91-27-24-18-44-37-60-59-11-16-21-41-29-74a379 379 0 0 1-14-98c3-27 10-54 22-79 11-26 27-49 46-68 19-20 41-35 66-46 25-11 52-15 82-12z" horiz-adv-x="833" />

<glyph glyph-name="arr-b" unicode="&#xe801;" d="M1529 850l-695-715-694 715-140-143 834-857 833 857z" horiz-adv-x="1667" />

<glyph glyph-name="arr-r" unicode="&#xe802;" d="M0 767l421-416-421-417 84-84 505 501-505 499z" horiz-adv-x="600" />

<glyph glyph-name="cart" unicode="&#xe803;" d="M343-150c24 0 44 9 61 27 16 19 24 41 24 67 0 27-8 49-24 68-17 19-37 28-60 28-23 0-42-9-59-28-17-19-26-41-26-68 0-26 8-48 25-66 16-19 36-28 59-28z m448 0c23 0 43 9 60 28 17 19 25 41 24 68 0 26-8 48-25 67s-37 28-60 28c-23 0-43-9-60-28-17-19-25-41-24-67 0-27 8-49 25-68 16-19 36-28 60-28z m-485 331c2 10 4 20 6 28 2 8 3 17 4 25 0 7 2 12 5 14a34 34 0 0 0 13 6c30 6 60 11 90 17 30 6 60 12 89 18 30 6 60 12 90 17l89 19c29 6 59 11 89 17 29 6 59 12 89 18 8 2 15 5 20 10 5 4 8 11 10 20 9 29 17 58 25 88 8 29 16 59 24 88l24 89c8 30 16 60 25 89 3 13 3 24-2 34a34 34 0 0 1-23 19 28 28 0 0 1-27-5c-9-6-14-15-17-27a490 490 0 0 0-10-46 16 16 0 0 1-4-1 14 14 0 0 0-3 0h-643a22 22 0 0 0-10 2c-3 1-4 5-5 11-3 15-5 29-8 43-3 15-5 29-8 44a43 43 0 0 1-12 23 32 32 0 0 1-23 9h-168a30 30 0 0 1-25-12 47 47 0 0 1-10-30c1-11 5-20 12-27 7-7 15-11 25-11h124c4 0 7-1 10-3 2-1 3-4 4-9 7-39 15-77 22-115 7-38 15-76 22-114 7-38 14-76 21-114 7-38 14-76 21-115a66 66 0 0 0 0-32c-3-17-5-34-8-52-3-18-7-35-11-53-3-14-2-26 5-36 7-10 17-15 32-15 43 1 87 1 131 1h131c43 0 87 0 131 0 43-1 87-1 130-1h71c9 0 17 4 23 10a32 32 0 0 1 7 24 32 32 0 0 1-8 23 32 32 0 0 1-22 10h-567v2z" horiz-adv-x="1000" />

<glyph glyph-name="chb" unicode="&#xe804;" d="M1222 669c0-22-7-39-22-54l-679-676a72 72 0 0 0-52-22 73 73 0 0 0-54 22l-393 391a73 73 0 0 0-22 54c0 21 7 39 22 54l108 105a73 73 0 0 0 53 22 73 73 0 0 0 54-22l232-230 516 515a73 73 0 0 0 54 22 73 73 0 0 0 54-22l107-107a71 71 0 0 0 22-52z" horiz-adv-x="1222" />

<glyph glyph-name="check" unicode="&#xe805;" d="M836 455a42 42 0 0 1-12 31l-60 58a37 37 0 0 1-28 12 41 41 0 0 1-30-12l-265-265-147 147a41 41 0 0 1-30 13 41 41 0 0 1-29-13l-60-59a40 40 0 0 1-11-29 43 43 0 0 1 11-30l236-236a43 43 0 0 1 30-11 43 43 0 0 1 29 11l354 354c8 8 12 17 12 29z m164-105a484 484 0 0 0-67-251 499 499 0 0 0-182-182 488 488 0 0 0-251-67 484 484 0 0 0-251 67 499 499 0 0 0-182 182 484 484 0 0 0-67 251c0 90 22 174 67 251a499 499 0 0 0 182 182 484 484 0 0 0 251 67c90 0 174-22 251-67a499 499 0 0 0 182-182c45-77 67-161 67-251z" horiz-adv-x="1000" />

<glyph glyph-name="cross" unicode="&#xe806;" d="M1000 804l-46 46-454-454-454 454-46-46 454-454-454-454 46-46 454 454 454-454 46 46-454 454z" horiz-adv-x="1000" />

<glyph glyph-name="fb" unicode="&#xe807;" d="M314-150h-188v500h-126v172l126 1v100c0 71 13 126 40 167 26 40 81 60 164 60h140v-172h-88c-32 0-51-6-58-18-6-12-10-29-10-51v-86h157l-19-173h-138v-500z" horiz-adv-x="471" />

<glyph glyph-name="geo" unicode="&#xe808;" d="M667 492c0 49-9 96-27 139a369 369 0 0 1-71 114 340 340 0 0 1-106 77 300 300 0 0 1-129 28 303 303 0 0 1-130-28 340 340 0 0 1-106-77 369 369 0 0 1-72-114c-17-43-26-90-26-139v-3c0-73 16-145 46-219 31-74 65-140 102-199 37-59 70-108 101-145l46-57c5-5 11-10 18-14 7-3 14-5 21-5 6 0 13 1 20 4 7 3 13 8 18 15 1 2 17 22 48 60 30 38 64 88 101 147 37 60 70 126 100 198 31 73 46 144 46 215v3z m-333-142c-46 0-86 16-118 49-33 32-49 72-49 118 0 46 16 85 49 117 32 33 72 49 118 49 45 0 84-16 117-49 33-32 49-71 49-117 0-46-16-86-49-118-33-33-72-49-117-49z" horiz-adv-x="667" />

<glyph glyph-name="help" unicode="&#xe809;" d="M0 350c0-69 13-134 39-195a502 502 0 0 1 107-159 502 502 0 0 1 159-107 490 490 0 0 1 195-39 490 490 0 0 1 195 39 502 502 0 0 1 159 107 502 502 0 0 1 107 159 490 490 0 0 1 39 195 490 490 0 0 1-39 195 502 502 0 0 1-107 159 502 502 0 0 1-159 107 490 490 0 0 1-195 39 490 490 0 0 1-195-39 502 502 0 0 1-159-107 502 502 0 0 1-107-159 490 490 0 0 1-39-195z m448-179h67v-69h-67v69z m-71 383c14 14 30 25 48 33a167 167 0 0 0 63 11c22 0 42-3 60-10 17-6 33-16 46-28 13-12 23-27 29-42 7-16 10-34 10-54 0-11-1-22-4-31-2-10-6-18-11-25-4-8-12-17-21-28a739 739 0 0 0-36-37c-12-10-20-20-27-29a123 123 0 0 1-15-24c-4-7-6-16-8-26-1-11-2-23-2-37h-59c0 16 1 30 3 43 1 13 4 24 8 33 4 10 10 20 18 32 8 11 19 23 32 36l26 26c4 4 8 8 11 12 3 4 6 7 9 11 4 8 8 15 10 22 2 8 3 15 3 23 0 11-1 22-5 31a82 82 0 0 1-14 26 59 59 0 0 1-26 17 113 113 0 0 1-39 6c-19 0-34-3-47-10a72 72 0 0 1-30-31c-4-7-7-17-9-27a239 239 0 0 1-4-39h-60c0 24 3 46 10 65 7 19 17 36 31 51l-10-11 10 11z" horiz-adv-x="1000" />

<glyph glyph-name="ig" unicode="&#xe80a;" d="M128 850h744c35 0 65-13 90-38 25-25 38-55 38-90v-744c0-35-13-65-38-90-25-25-55-38-90-38h-744c-35 0-65 13-90 38a123 123 0 0 0-38 90v744c0 35 13 65 38 90 25 25 55 38 90 38z m600-111a43 43 0 0 1-31-13 44 44 0 0 1-14-32v-108c0-13 5-23 14-32 8-8 19-12 31-12h113c13 0 23 4 32 13a42 42 0 0 1 13 31v108a44 44 0 0 1-13 32 43 43 0 0 1-32 13h-113z m159-311h-88c4-14 7-28 9-43 3-14 4-29 4-44 0-41-8-80-25-117a304 304 0 0 0-66-95 322 322 0 0 0-99-65 305 305 0 0 0-121-24 306 306 0 0 0-121 24 321 321 0 0 0-99 65 305 305 0 0 0-66 95 283 283 0 0 0-25 117c0 15 1 30 4 44a359 359 0 0 0 9 43h-91v-424c0-10 4-19 12-27a38 38 0 0 1 27-12h696c11 0 21 4 28 12a38 38 0 0 1 12 27v424z m-386 119c-27 0-53-5-78-15a204 204 0 0 1-64-42c-18-18-32-39-43-62a180 180 0 0 1-16-76c0-27 5-52 16-76 11-23 25-44 43-62a202 202 0 0 1 142-57 201 201 0 0 1 78 16 205 205 0 0 1 64 41c18 18 33 39 43 62a184 184 0 0 1 16 76 184 184 0 0 1-16 76 195 195 0 0 1-43 62 212 212 0 0 1-64 42 195 195 0 0 1-78 15z" horiz-adv-x="1000" />

<glyph glyph-name="logo-d" unicode="&#xe80b;" d="M5563 708c0 14 5 26 15 35a52 52 0 0 0 37 15c14 0 26-5 36-15 11-9 16-21 16-35 0-15-5-28-16-38a52 52 0 0 0-36-14c-14 0-27 5-37 14-10 10-15 23-15 38z m52-44c11 0 21 4 29 12 7 9 11 19 11 32a42 42 0 0 1-11 30 38 38 0 0 1-29 12c-12 0-22-4-30-12-8-9-13-19-13-30 0-13 4-23 13-32 8-8 18-12 30-12z m-12 13h-8v60h22c7 0 13-2 16-4 3-3 5-7 5-14 0-5-1-9-4-11-3-3-6-4-12-4l18-27h-10l-15 27h-12v-27z m12 33c4 0 7 0 9 2 3 1 4 4 4 7s-1 7-4 8a17 17 0 0 1-7 2h-14v-19h12z m-1690 9c0 16 5 28 15 38a52 52 0 0 0 37 14c14 0 26-5 37-14 10-10 15-22 15-38 0-14-5-26-15-35a52 52 0 0 0-37-15c-14 0-26 5-37 15a47 47 0 0 0-15 35z m52-42c12 0 21 4 29 13a42 42 0 0 1 12 29c0 13-4 23-12 31a39 39 0 0 1-29 12c-11 0-21-4-30-12-8-8-12-18-12-31 0-11 4-21 12-29s19-13 30-13z m-11 14h-8v59h21c8 0 13-1 16-5 4-3 5-7 5-12s-1-9-4-12a25 25 0 0 0-11-5l17-25h-10l-15 25h-11v-25z m11 32c4 0 7 1 10 2 2 1 4 4 4 8 0 4-2 6-4 8a17 17 0 0 1-8 1h-13v-19h11z m-3385 83c10-40 20-79 29-118 9-39 17-79 25-120 1-8 1-15-2-21a85 85 0 0 0-12-18c-3-4-8-7-13-9a75 75 0 0 0-15-6c-8 0-16 1-24 5a48 48 0 0 0-19 14 351 351 0 0 0-40 79 236 236 0 0 1-47 77 54 54 0 0 1-18 8 31 31 0 0 1-20-1l-10-9 8-728c1-12 7-22 16-30 10-9 20-14 30-17 9 3 17 8 23 17 7 8 11 16 12 24l4 42-6 354a33 33 0 0 1-22 26 33 33 0 0 0-22 26c1 6 5 12 12 17 7 5 13 9 19 11a680 680 0 0 0 71 27c24 8 47 18 69 31h22c9 0 15-2 21-6l9-9 4-510c3-9 6-18 10-27 3-10 11-16 21-19a11 11 0 0 0 7-12 48 48 0 0 0-5-17 33 33 0 0 0-21-14c-9-2-18-3-25-5h-170a33 33 0 0 0-18 6 95 95 0 0 0-15 12c-19-15-42-21-69-20a696 696 0 0 1-73 0 374 374 0 0 1-80-1c-29-3-55 3-76 19a12 12 0 0 0-6 10c0 5 0 9 2 13a24 24 0 0 0 19 13c9 1 15 7 17 17l8 23-2 554-4 173a24 24 0 0 1-10 8 36 36 0 0 1-15 3c-9-1-16-6-23-13-6-8-12-16-17-23a580 580 0 0 1-28-61c-8-21-18-41-28-60a89 89 0 0 0-14-18 48 48 0 0 0-19-11c-9-3-18-2-27 1-9 3-17 8-23 14-12 14-15 30-10 47 6 18 9 35 10 51l39 175c2 4 5 8 7 14a17 17 0 0 0 12 9c15 7 27 3 35-9 7-13 18-18 32-14l380 4c11 0 22 5 31 16 9 11 20 12 32 3l12-17z m2329-10l8-11 2-121 6-698c1-10 4-20 8-29s13-15 24-19c3-4 5-8 5-14 1-6 1-11-1-15-5-12-13-20-25-23a152 152 0 0 0-33-3h-159a77 77 0 0 0-20 6 37 37 0 0 0-15 15 25 25 0 0 0-4 14c0 6 1 12 2 18 9 5 17 11 24 17 7 5 11 14 13 26v324a358 358 0 0 0-1 46c0 17-1 32-3 45-5-14-8-30-7-48 1-18-7-32-24-41a31 31 0 0 0-20-1 54 54 0 0 0-19 9 61 61 0 0 0-17 23 190 190 0 0 0-10 29c-3 4-8 5-14 3a224 224 0 0 0-16-5c-62-45-89-105-82-180 7-75 7-145 1-210 0-14 5-22 17-22 12-1 19-8 21-20 0-6-1-11-4-16a126 126 0 0 0-7-13 34 34 0 0 0-23-11c-8 0-16-1-24-3l-175 2a31 31 0 0 0-14 9 56 56 0 0 0-11 14 43 43 0 0 0-2 14c0 5 2 9 6 13 5 5 11 9 19 10 8 1 13 6 16 15v39l-4 367c0 15-8 25-23 29-16 5-22 15-20 32l21 21c26 10 52 20 78 30 25 10 51 20 77 30 9 1 17 1 26 0 8-2 15-6 22-14a254 254 0 0 0 0-44c-1-15 0-30 4-44a7 7 0 0 1 4-2c2 0 4 1 5 2a476 476 0 0 0 55 67c21 22 47 32 78 31 12-1 24-3 36-6 12-2 21-9 28-19l4 8-2 136h-2c1 8 1 15 0 23l-4 23c1 14-6 24-20 30-15 6-19 17-11 34 22 25 49 41 81 47a191 191 0 0 1 87 39c6 1 13 1 20 0 7-1 13-4 18-8z m2222-92l27 6-23 52a2047 2047 0 0 0-37 86c8 0 15 0 22-1 7-1 14-1 20-3 11-16 23-38 37-63l21-39 36 21c24 13 44 24 60 31 4 0 9-1 14-4 5-4 10-7 13-11l-98-87 29-80 39 55c25 36 46 66 63 89 7-1 12-4 17-8 6-4 10-8 14-13-8-13-16-25-25-37-9-11-16-23-21-36a991 991 0 0 1 61-2c21 0 42-1 62-4 5-5 11-11 16-18 6-7 10-15 13-22l-104-8-50-86 67 15 33 13a1949 1949 0 0 0 75 29c4-6 8-13 11-20 3-7 6-14 8-22l-111-44-101-21c-7-8-13-16-18-25a201 201 0 0 0-16-27 1330 1330 0 0 1 133 29c43 13 88 23 133 32 19-66 23-135 13-206-10-71-33-135-69-191a776 776 0 0 0-184-24 2637 2637 0 0 0-188 4c-63 4-126 8-189 11a982 982 0 0 1-189-9l-71-7a354 354 0 0 0-60 101 697 697 0 0 0-32 116 515 515 0 0 0-2 133c5 46 15 88 30 126 4 0 25 2 63 6l57 6-69 80c1 8 4 14 9 19 5 6 10 11 16 18 16-20 37-43 62-71l38-43 38 4-117 133a215 215 0 0 0 23 27c9 9 17 16 25 21l100-18-1 30c0 20 0 38 1 53 10 5 21 10 32 14 11 5 22 8 34 11 9-18 17-36 26-54s18-36 30-54c11 21 23 42 34 65 12 22 23 44 35 66a7 7 0 0 0 5 2c2 0 4-1 6-2l74-144z m-75 48l-52-100 30-102 47 33 13 85a873 873 0 0 0-18 43 274 274 0 0 1-20 41z m-153-6v-50l25-5a140 140 0 0 1-10 28c-5 9-10 18-15 27z m-127-59v-4a2360 2360 0 0 0 49-51l30-32v66l-79 21z m397-23l-23-16 6-17 21 19-4 14z m-266-21l2-93 37 79-39 14z m426-39l-33-4-52-82 33 2 52 84z m-204-59l4-95 71 91a15 15 0 0 1 7 10l1 7-14 42-69-55z m-152 11l-24-44 43-48c-3 17-6 32-9 47a1497 1497 0 0 1-10 45z m98-40l-27-14 2-36 23-8 2 58z m-283-4l-37-60 77-28 64 55-25 25-79 8z m-158-12l67-32 19 36-86-4z m578-44l-35-59 40 4 37 61-42-6z m-274-11l-121-100-60-4 13 15c9 11 16 20 20 27a387 387 0 0 1-33 15 239 239 0 0 1-35 10l-42-57h-22c-7 0-13-2-19-4-1-25 0-48 4-70 4-23 8-46 12-69 2-5 5-11 8-19 2-7 8-11 17-9 60 0 119-4 177-11 58-7 116-14 175-20v182a116 116 0 0 1-13 23 1187 1187 0 0 1-15 22l-56-33-101-2c-1 1 14 11 46 29 31 18 57 32 76 44a175 175 0 0 0-15 16 59 59 0 0 1-16 15z m-293-4c-4-8-6-17-6-28 0-11 1-20 2-28 5 8 12 17 21 29l12 17-29 10z m861-23l-42-14c5-11 13-25 22-42l15-25-52-2-47 56c-11-3-27-6-46-11l-29-6 21-39-38-4-29 37-60-17c-40-12-72-22-98-29l-4-6c0-29 1-59 3-87 2-29 5-58 9-86l5-11c49-9 99-16 150-20 51-3 102-7 155-9l10 4a329 329 0 0 1 34 64c9 22 18 45 25 68 9 27 14 57 15 90 0 34-6 63-19 89z m-3841 382l5-15 2-311c7-12 14-13 21-2 7 10 14 15 22 15 22 8 45 8 69 1a133 133 0 0 0 62-38c32-34 53-72 62-114 10-41 19-84 26-128l2 2c5 50 16 100 31 148 16 49 46 87 93 116 23 14 50 20 82 20 31-1 59-8 83-22 29-25 53-53 73-84 20-31 29-67 28-107 0-10-1-20-2-29a269 269 0 0 0-6-30c-35-15-70-30-105-43-36-14-71-28-105-42-8-6-10-14-7-23 3-9 6-16 7-23a310 310 0 0 1 21-45c9-16 22-26 40-30l35-8c13-4 24-1 33 8 10 9 16 24 16 44 1 19 13 25 36 18 9-1 18-5 26-10 8-5 15-12 20-21 5-28 3-54-6-79s-20-47-32-69a171 171 0 0 0-84-38 327 327 0 0 0-94-2c-60 13-103 46-129 99-25 53-43 106-52 158a1038 1038 0 0 0-23-147c-11-50-44-85-98-105a216 216 0 0 0-99-3c-34 6-63 21-86 44a160 160 0 0 0-7 15 21 21 0 0 1-10 12c-15-2-23-8-26-19-4-12-9-22-17-29-7-5-16-11-26-17-9-5-19-7-30-4a50 50 0 0 0-10 9 36 36 0 0 0-7 12c-12-13-25-19-41-19-16 1-32 1-48-1l-123 2a51 51 0 0 0-19 9c-7 5-10 10-12 16-1 8 1 14 7 18 6 4 11 7 16 9 6 9 10 19 13 30 3 11 4 23 3 36a2265 2265 0 0 1-10 161 2935 2935 0 0 1-19 158 1730 1730 0 0 0-12 31 59 59 0 0 1-21 28 17 17 0 0 1-17-2 126 126 0 0 1-14-11l-11-16v-376c2-9 6-18 10-27s12-16 22-19a18 18 0 0 0 5-11c1-4 1-9-1-12-11-17-27-24-48-22-20 3-38 3-54 0-20 3-44 3-70-1-26-3-47 5-61 24a24 24 0 0 0 0 14 17 17 0 0 0 10 11c10 3 17 9 21 18 4 9 7 17 10 25l-4 394a30 30 0 0 1-15 15 70 70 0 0 1-22 8c-9-2-16-5-23-11a80 80 0 0 1-15-18 87 87 0 0 1-11-52c2-18 2-37 1-56l2-284c0-12 4-20 13-26 9-6 17-13 22-20a26 26 0 0 0-4-19c-4-7-9-11-14-14-34-6-67-9-97-7a972 972 0 0 1-97 1 297 297 0 0 0-23 5c-8 2-15 7-20 15a71 71 0 0 0-3 12 10 10 0 0 0 5 11c8 3 15 8 21 14 7 6 11 13 12 22l4 21-4 379c-3 15-11 25-26 29-15 3-20 14-16 30a81 81 0 0 0 40 27c17 5 33 11 48 17 13 6 26 11 40 17 13 6 26 12 39 18h31c10 0 18-5 23-15 0-8 0-16-1-24 0-9 3-15 11-19 11 0 19 6 24 16a55 55 0 0 0 22 25c18 15 41 22 68 21 28-1 52-6 71-15 10-7 18-14 23-23 5-8 11-16 19-24 13 0 22 6 26 18 5 11 12 20 22 27 18 11 40 16 65 14 25-2 46-9 63-20 30-26 49-57 56-94 7-37 15-73 24-108 7-49 13-97 19-145 6-48 8-98 6-149 2-9 4-20 6-33 3-12 10-21 21-25l6-5 6 9-8 725a86 86 0 0 1-12 36 165 165 0 0 1-24 31 14 14 0 0 0-2 12 18 18 0 0 0 7 11 143 143 0 0 0 68 38 300 300 0 0 1 73 29c8 9 18 14 32 15 13 0 24-4 32-13z m406-417a319 319 0 0 1-7-83c1-27 4-54 9-82 3-4 5-8 7-13 2-6 6-7 12-6a183 183 0 0 0 34 16c12 5 23 13 32 24 19 28 22 58 8 88a1061 1061 0 0 1-43 81c-10 8-20 8-31 1a55 55 0 0 1-21-26z m-341 19a26 26 0 0 1-15-8 71 71 0 0 1-10-15 373 373 0 0 1-35-126 695 695 0 0 1 2-137c6-19 10-39 14-58 4-20 13-38 29-53 4-3 8-2 13 1 5 3 10 6 14 8 34 52 50 112 45 181-4 69-16 132-34 188a28 28 0 0 0-9 13c-3 5-7 8-14 6z m2601 392l2-36 8-759c0-5 1-10 4-13a19 19 0 0 1 11-8c4-1 9-3 14-5 5-2 8-5 9-11 2-6 1-12-1-19a108 108 0 0 0-6-17c-22-12-45-21-69-30-24-8-47-17-70-26a138 138 0 0 1-33-8c-11-5-22-3-33 4-6 6-7 12-3 19 5 7 2 12-8 16-9-6-18-15-26-25-9-10-19-17-30-19a133 133 0 0 0-74 6 195 195 0 0 0-65 40c-40 46-61 102-64 167-4 65-1 128 8 186 4 41 14 80 29 117a324 324 0 0 0 66 99 91 91 0 0 0 45 25 147 147 0 0 0 53 2c10-2 19-6 26-12 7-6 14-12 22-17 1 0 3 0 5 2a32 32 0 0 1 5 3l-2 179c-3 17-15 30-37 39-22 9-23 25-4 48 8 3 17 5 26 3 10-1 19 1 26 6 24 13 48 24 73 34a820 820 0 0 1 72 31 29 29 0 0 0 13-7c4-4 7-9 8-14z m-235-393a20 20 0 0 1-14-12 253 253 0 0 1-9-19c-9-36-17-74-23-114a418 418 0 0 1-2-121c6-23 12-46 16-69 5-23 17-43 36-59 5-3 10-4 15-4 5 0 10 2 14 8 23 46 35 96 35 151a662 662 0 0 1-16 158 588 588 0 0 0-17 47c-5 16-17 27-35 34z m-285 21c9-16 16-32 22-48 6-17 11-34 15-52 10-58 19-116 27-174a2007 2007 0 0 0 15-176c1-8 3-15 5-22 2-7 5-14 8-20 6-4 11-7 16-10 5-2 8-7 8-15a32 32 0 0 0-5-17 29 29 0 0 0-15-12 438 438 0 0 0-92-6 2370 2370 0 0 1-95 2 51 51 0 0 0-20 8 33 33 0 0 0-12 15 31 31 0 0 0 0 16 17 17 0 0 0 9 11c13 5 20 14 22 25 2 12 5 23 7 33 0 59-5 117-16 176a1602 1602 0 0 1-42 170 95 95 0 0 1-10 19 48 48 0 0 1-19 15 26 26 0 0 1-15-1c-5-2-8-5-10-8l-3-16 5-378c-1-13 4-22 14-28 10-6 17-14 21-24 1-7-1-12-6-17a60 60 0 0 0-15-12 475 475 0 0 0-94-7c-34 1-65 2-95 3a61 61 0 0 0-19 8 31 31 0 0 0-14 17 195 195 0 0 1-9-10c-4-5-8-8-12-11a78 78 0 0 0-37-16 155 155 0 0 0-38-1 84 84 0 0 0-41 18 548 548 0 0 1-36 28h-14a205 205 0 0 0-82-47 134 134 0 0 0-93 5c-24 7-47 22-67 44-21 22-32 46-35 73a347 347 0 0 0-2 109c5 38 23 68 54 91a228 228 0 0 0 79 57c29 13 59 24 89 33 6 14 9 29 9 45 0 16-2 31-6 45a323 323 0 0 1-12 26c-5 8-12 15-22 18l-54 6a75 75 0 0 1-10-4 13 13 0 0 1-6-5c4-8 10-14 17-17 7-3 12-9 14-18 3-12 3-25 2-39-1-15-7-27-17-36-14-9-31-15-51-17-20-3-38 2-53 13-13 10-21 22-25 36a156 156 0 0 0-6 43c-1 26 7 47 25 64 18 18 37 30 58 38a277 277 0 0 0 91 15c32 0 63-2 94-6a126 126 0 0 0 59-22c17-12 30-28 39-47 10-29 18-60 22-93 5-33 9-65 13-97 4-36 6-73 8-111 2-39 4-77 5-114 1-4 3-7 5-10a28 28 0 0 1 9-9c6 1 13 1 20-1 7-2 11-7 12-14a113 113 0 0 0 8-41c7 0 13 3 19 7 7 5 11 10 12 16l8 25-4 383c-1 16-13 29-36 39-22 10-19 23 9 39a2314 2314 0 0 0 70 30 521 521 0 0 1 69 34c7 0 15 0 24-1 8-1 15-4 20-9a22 22 0 0 0 7-18 22 22 0 0 1 6-18c8 2 13 7 15 13a35 35 0 0 0 12 17c11 9 22 16 35 21 13 4 26 4 40 1 18-7 35-17 52-30 16-14 29-29 41-45z m-669-237c-28-16-42-41-42-73v-90c3-11 6-23 11-35 4-11 13-19 26-23 10-3 20-4 30-1 11 4 18 9 24 17 1 33 1 67-1 103a1865 1865 0 0 1-9 104c-4 9-10 12-18 9a84 84 0 0 1-21-11z m2334-132a568 568 0 0 0-51-59 352 352 0 0 0-61-51c-58 0-115 4-170 11a6300 6300 0 0 0-164 23c-53 8-108 17-162 25a1576 1576 0 0 1-165 16 50 50 0 0 0-11 10 33 33 0 0 0-6 13 1203 1203 0 0 0 262 18c87-4 174-9 260-16 45-1 90 0 137 2a876 876 0 0 1 132 17l-1-9z m-341-108c33-4 66-7 100-10 33-4 66-7 98-11-68-47-150-72-247-74-96-2-180 18-252 61-19 12-39 26-59 39a265 265 0 0 0-53 47c2 3 4 4 7 3 3-1 6 0 9 1l94-8 303-48z" horiz-adv-x="5667" />

<glyph glyph-name="logo-m" unicode="&#xe80c;" d="M975 706c0 12 4 23 12 30 9 8 19 12 30 12 12 0 22-4 30-12 9-8 13-18 13-30 0-12-4-23-13-31-8-8-18-12-30-12a42 42 0 0 0-30 12c-8 8-12 19-12 31z m42-36c10 0 18 3 25 10 7 7 10 16 10 26 0 10-3 18-10 25a34 34 0 0 1-25 10c-9 0-17-3-24-10a35 35 0 0 1-10-25c0-10 4-19 10-26 7-7 15-10 24-10z m-8 12h-8v48h18c6 0 10-1 13-3 3-2 5-6 5-10 0-5-1-8-4-10a19 19 0 0 0-9-4l15-21h-9l-13 20h-8v-20z m8 27c4 0 6 0 9 1 2 1 3 3 3 7 0 3-1 5-3 6a26 26 0 0 1-8 1h-9v-15h8z m-469-6l28 6-23 52a1791 1791 0 0 0-35 86 112 112 0 0 0 21 0c7-1 14-2 20-3 10-18 22-39 36-65l20-38 36 20a1466 1466 0 0 0 60 33c5-1 10-3 14-5 5-3 9-7 13-11l-97-86 29-81 38 55c26 36 47 66 64 89 5-1 11-3 16-7 5-5 9-9 13-14a414 414 0 0 0-24-36 182 182 0 0 1-21-37c20-1 41-2 61-2s41-1 61-3c6-6 11-12 16-19 5-7 9-14 12-22l-103-7-49-85 67 14 33 14c21 8 46 18 73 28 5-6 8-13 12-20 3-7 5-14 7-22l-110-45-99-20a162 162 0 0 1-18-26c-5-9-10-17-16-26 44 8 87 18 131 31a1778 1778 0 0 0 132 32c10-34 16-68 18-103 2-35 1-70-4-104a506 506 0 0 0-25-101 437 437 0 0 0-44-90 740 740 0 0 0-183-24c-62 0-123 1-186 5a18075 18075 0 0 1-187 9 1027 1027 0 0 1-187-8l-72-9a353 353 0 0 0-60 103 614 614 0 0 0-30 116 519 519 0 0 0-3 133c5 44 16 86 32 125 3 0 23 2 60 6l56 5-68 82c2 7 5 13 10 19 5 5 10 11 15 16 17-18 38-41 63-69l37-42 37 3-115 133a135 135 0 0 0 21 25c9 9 18 17 26 23l99-18-1 30c0 20 0 37 1 52a232 232 0 0 0 32 15c11 5 22 8 33 10 9-17 18-35 26-54 8-18 18-36 29-53a1218 1218 0 0 1 35 64 6370 6370 0 0 1 34 66 18 18 0 0 0 5 2c2 0 4 0 6-2l72-145z m-71 48l-53-100 31-101 45 32 12 85-17 43a599 599 0 0 1-18 41z m-152-6v-50l24-5c-3 9-7 19-11 28-4 9-8 18-13 27z m-127-59v-3c13-13 29-31 48-52l30-32v65l-78 22z m394-24l-22-14 5-18 20 20-3 12z m-265-21l4-92 35 80-39 12z m422-38l-33-4-50-82 33 1 50 85z m-201-61l4-93 71 89c3 4 5 7 6 12l2 7-14 43-69-58z m-152 13l-21-44 41-48c-2 16-5 31-9 47a1855 1855 0 0 1-11 45z m99-40l-27-13 2-38 22-8 3 59z m-281-5l-38-58 77-30 63 56-24 25-78 7z m-158-12l67-30 20 34-87-4z m574-43l-35-58 40 4 37 59-42-5z m-271-12l-121-100-59-3 14 15c8 11 15 19 18 26a388 388 0 0 1-33 15 515 515 0 0 1-33 12l-42-58c-7-1-15-1-22-1-7 0-13-1-18-4a267 267 0 0 1 3-70c4-23 9-45 12-67 3-6 6-12 8-19 3-8 9-11 18-11a1322 1322 0 0 0 88-3c29-1 58-4 87-7 29-4 58-7 86-11 29-3 58-7 88-10v183a389 389 0 0 1-14 23c-6 9-11 16-16 20l-54-32-100-1c-1 1 14 10 45 28 31 17 56 32 75 45a301 301 0 0 0-14 17 45 45 0 0 1-16 13z m-290-3c-4-8-6-17-6-28 0-11 0-20 1-29 5 8 12 18 20 30l13 17-28 10z m853-24l-43-12c6-11 14-25 24-43l14-26-52-1-46 55a26639 26639 0 0 1-74-16l21-39-38-4-28 38-60-18c-40-12-73-22-98-30l-3-5c0-29 1-57 3-86 2-29 4-58 7-86l5-11c50-10 100-17 150-20 50-4 101-7 153-11l10 5a345 345 0 0 1 34 64 1315 1315 0 0 1 25 68c8 27 13 57 14 91 0 33-6 62-18 87z m-30-363c-15-21-32-40-51-60a430 430 0 0 0-61-52 1640 1640 0 0 0-167 12c-54 7-108 15-162 23-54 9-108 17-162 25a1593 1593 0 0 1-164 16 297 297 0 0 0-10 11 30 30 0 0 0-6 13 1145 1145 0 0 0 129 14 1737 1737 0 0 0 130 2c43-1 86-3 129-6 43-3 86-5 129-7 44-3 89-3 135 0a989 989 0 0 1 132 17l-1-8z m-339-108c33-4 66-7 99-10 33-3 66-7 99-11-34-24-73-42-115-54-43-12-87-19-131-20a525 525 0 0 0-132 14c-43 10-82 25-118 46a1517 1517 0 0 0-58 39 282 282 0 0 0-53 48c1 2 3 4 6 3a13 13 0 0 1 9 1l94-9 300-47z" horiz-adv-x="1060" />

<glyph glyph-name="menu" unicode="&#xe80d;" d="M1790 850h-1790v-158h1790v158z m0-420h-1790v-160h1790v160z m0-422h-1790v-158h1790v158z" horiz-adv-x="1789" />

<glyph glyph-name="search" unicode="&#xe80e;" d="M976-7l-240 239a37 37 0 0 1-4 3 110 110 0 0 1-5 4 413 413 0 0 1 48 101c11 37 17 75 17 115 0 54-11 105-32 153a403 403 0 0 1-85 126 404 404 0 0 1-126 85c-47 21-99 31-154 31-54 0-105-10-153-31a397 397 0 0 1-126-85 408 408 0 0 1-85-126c-21-48-31-99-31-153 0-55 10-107 31-155a406 406 0 0 1 85-126 397 397 0 0 1 126-85c48-21 99-31 153-31 40 0 78 6 115 17a415 415 0 0 1 102 47c0-1 1-2 3-4a53 53 0 0 1 3-4l239-240c9-7 18-13 28-18 10-4 20-6 31-6 11 0 22 2 32 6 10 5 19 11 28 18 16 17 24 36 24 59 0 24-8 43-24 60z m-581 190a261 261 0 0 0-105 22 277 277 0 0 0-86 58 269 269 0 0 0-79 192c0 37 7 72 21 105a269 269 0 0 0 58 85 277 277 0 0 0 86 59 261 261 0 0 0 105 21c38 0 73-7 106-21a278 278 0 0 0 86-59 276 276 0 0 0 58-86c14-32 21-67 21-105a262 262 0 0 0-21-105 276 276 0 0 0-58-86 278 278 0 0 0-86-58 260 260 0 0 0-106-22z" horiz-adv-x="1000" />

<glyph glyph-name="tblr" unicode="&#xe80f;" d="M375 413v-229c0-29 0-53 1-70s2-30 5-38c2-8 7-16 15-24 7-8 15-14 23-19 11-7 23-12 35-15 13-3 26-5 40-5 26 0 48 3 66 7 19 5 40 16 65 32v-150a595 595 0 0 0-61-24c-18-6-36-12-53-16a483 483 0 0 0-54-9 555 555 0 0 0-59-3c-23 0-43 1-58 4a379 379 0 0 0-50 14 302 302 0 0 0-49 21 245 245 0 0 0-41 27 228 228 0 0 0-31 34 183 183 0 0 0-21 35 209 209 0 0 0-10 44 464 464 0 0 0-3 60v351h-135v141c20 7 40 15 60 24a192 192 0 0 1 51 32c15 12 27 25 38 39 12 15 21 30 30 46 8 17 15 36 21 57 6 21 11 45 14 71h161v-250h250v-187h-250z" horiz-adv-x="625" />

<glyph glyph-name="tw" unicode="&#xe810;" d="M1250 732a472 472 0 0 0-71-26 441 441 0 0 0-77-13c27 15 50 34 70 58a251 251 0 0 1 44 81c-25-14-52-27-79-37a501 501 0 0 0-85-24 255 255 0 0 1-83 57 253 253 0 0 1-103 22 252 252 0 0 1-101-20c-31-13-58-31-81-54a256 256 0 0 1-55-80 242 242 0 0 1-18-127c1-10 3-19 4-29a709 709 0 0 0-154 24 737 737 0 0 0-268 136 722 722 0 0 0-106 104c-11-19-19-39-25-60-6-22-9-44-9-67 0-44 10-85 31-122 20-36 48-66 82-88a255 255 0 0 0-61 9 300 300 0 0 0-55 22v-3c0-61 20-115 59-161a251 251 0 0 1 147-86 241 241 0 0 0-92-9 200 200 0 0 0-24 4c17-50 47-91 90-124a254 254 0 0 1 150-51 535 535 0 0 0-147-80 508 508 0 0 0-203-28l-30 3c29-18 58-34 89-48a720 720 0 0 1 96-35c33-10 67-17 102-22 35-5 70-8 106-8 118 0 222 22 313 65 91 44 167 101 229 169a719 719 0 0 1 140 232c32 85 48 169 48 253 0 5 0 10-1 15a233 233 0 0 0 0 17 494 494 0 0 1 128 131z" horiz-adv-x="1250" />

<glyph glyph-name="vk" unicode="&#xe811;" d="M459 277c-32 19-76 19-112 19h-118v-244h108c40 0 91-3 126 22 32 21 50 63 50 103 0 37-22 81-54 100z m-45 208c26 20 40 55 40 88 0 36-16 70-47 89-31 18-90 14-127 14h-51v-214h68c38 0 84-3 117 23z m-8-614h-406v979h443c129 0 247-82 247-226 0-111-62-187-141-211v-3c117-24 201-88 201-242 0-142-97-297-344-297z" horiz-adv-x="750" />

<glyph glyph-name="yt" unicode="&#xe812;" d="M1117 850h-859c-71 0-132-24-182-74-51-49-76-107-76-176v-500c0-69 25-127 76-176 51-50 111-74 182-74h859c71 0 132 24 182 74 51 49 76 107 76 176v500c0 69-25 127-76 176-50 50-111 74-182 74z m-601-833v666l429-333-429-333z" horiz-adv-x="1375" />

<glyph glyph-name="arr-l" unicode="&#xe813;" d="M588 767l-420-416 420-417-84-84-504 501 504 499z" horiz-adv-x="588" />

<glyph glyph-name="arr-t" unicode="&#xe814;" d="M142-150l714 715 714-715 144 143-858 857-856-857z" horiz-adv-x="1714" />

<glyph glyph-name="star" unicode="&#xe815;" d="M536 46l331-196-88 370 292 249-385 32-150 349-151-349-385-32 292-249-87-370z" horiz-adv-x="1071" />

<glyph glyph-name="video" unicode="&#xe816;" d="M500-150a500 500 0 1 1 0 1000 500 500 0 0 1 0-1000z m-167 285v437l389-219-389-218z" horiz-adv-x="1000" />

<glyph glyph-name="magazine" unicode="&#xe817;" d="M1070 850h-1007v-125h1007v125z m63-625v125l-63 313h-1007l-63-313v-125h63v-375h630v375h251v-375h126v375h63z m-566-250h-378v250h378v-250z" horiz-adv-x="1133" />

<glyph glyph-name="delivery" unicode="&#xe818;" d="M1825 24h88v174c0 152-239 196-239 196l-65 152s-9 39-44 65-87 22-87 22h-195l-66-609h219a196 196 0 0 0 389 0z m-1348 0h653l83 783a39 39 0 0 1-39 43h-1043c-24 0-46-19-49-43l-82-783h88a196 196 0 0 0 389 0z m871 522h174l65-174h-239v174z m-1065-696a152 152 0 1 1 0 304 152 152 0 0 1 0-304z m0 109a44 44 0 1 1 0 87 44 44 0 0 1 0-87z m1347-109a152 152 0 1 1 0 304 152 152 0 0 1 0-304z m0 109a44 44 0 1 1 0 87 44 44 0 0 1 0-87z" horiz-adv-x="1913" />

<glyph glyph-name="return" unicode="&#xe819;" d="M641 745l81 80-269 0 0-269 81 81s148-90 93-308c0 0 124 84 109 250 0 0-3 79-95 166z m-236-895a88 88 0 0 1 89 88 88 88 0 0 1-89 88 88 88 0 0 1-88-88 88 88 0 0 1 88-88z m355 0a88 88 0 0 1 88 88 88 88 0 0 1-88 88 88 88 0 0 1-89-88 88 88 0 0 1 89-88z m-45 225c-4 0-7 1-10 1h-262c-145 0-195 118-202 182-2 12-16 92-50 288-20 112-52 140-62 145-1 1 1 5-1 4a50 50 0 0 0-14-2h-63a51 51 0 0 0-51 51c0 27 23 50 51 50h58c20 3 47 0 74-17 52-32 88-104 107-214 38-214 51-290 51-290 0-1 1-2 1-4 1-15 14-92 101-92h266c2 0 4 0 6-1 9 2 34 16 65 65 61 97 123 232 123 234a51 51 0 0 0 67 25 50 50 0 0 0 25-67c-2-6-65-143-129-245-62-98-121-113-151-113z" horiz-adv-x="1000" />

<glyph glyph-name="edit" unicode="&#xe81a;" d="M764 849c3-1 6-2 9-3 2 0 5-1 7-1 10-2 19-5 27-9 8-4 15-10 21-17a5888 5888 0 0 0 142-141c19-20 30-43 30-70 0-27-10-50-30-70-44-43-86-86-129-129-43-43-86-86-128-128-43-43-86-86-128-129a12959 12959 0 0 0-131-130l-70 70-71 70-71 71c-23 23-46 47-70 71 0 1 1 2 2 3l4 4c42 42 84 84 126 126a37553 37553 0 0 1 252 252c42 42 84 84 126 125 9 10 19 18 30 24a104 104 0 0 0 37 11c1 0 2 0 2 1 0 0 1 0 2 0a12 12 0 0 1 5-1h6z m-662-624l69-69c22-22 45-45 68-68 23-23 45-46 68-68 23-23 46-45 69-68a8061 8061 0 0 1-187-51c-32-8-63-17-94-25-32-9-63-17-95-26a18186 18186 0 0 1 51 188l25 94c8 31 17 62 26 93z" horiz-adv-x="1000" />

<glyph glyph-name="card" unicode="&#xe81b;" d="M0 0c0-30 18-62 54-97 35-36 68-53 98-53h946c30 0 63 17 99 53 35 35 53 67 53 97v379h-1250v-379z m1250 700c0 30-18 62-53 97-36 36-69 53-99 53h-946c-30 0-63-17-98-53-36-35-54-67-54-97v-204h1250v204z" horiz-adv-x="1250" />

<glyph glyph-name="detail" unicode="&#xe81c;" d="M1333 817h-1000v-134h1000v134z m0-367h-1000v-133h1000v133z m0-367h-1000v-133h1000v133z m-1233 567a100 100 0 1 1 0 200 100 100 0 0 1 0-200z m0-367a100 100 0 1 1 0 200 100 100 0 0 1 0-200z m0-366a100 100 0 1 1 0 200 100 100 0 0 1 0-200z" horiz-adv-x="1333" />

<glyph glyph-name="heart" unicode="&#xe81d;" d="M621-150l-97 66c-65 44-136 99-213 166a1774 1774 0 0 0-214 218c-65 78-97 152-97 222 0 51 8 97 24 138 15 40 37 75 65 103a283 283 0 0 0 99 65c38 15 80 22 125 22 55 0 102-8 141-23 38-16 69-34 93-53 24-19 42-36 53-52 12-15 19-23 21-23 3 0 11 7 25 23 14 16 34 33 60 52 27 19 58 37 96 53 37 15 80 23 128 23 58 0 109-9 151-26 42-17 76-41 102-72 27-31 47-68 59-111a491 491 0 0 0 19-138c0-68-33-139-100-215a1810 1810 0 0 0-220-212c-80-65-153-119-220-162l-100-64z" horiz-adv-x="1261" />

<glyph glyph-name="address" unicode="&#xe81e;" d="M898 850h-708c-15 0-29-5-40-16a53 53 0 0 1-16-39v-18h93c31 0 58-12 81-34 22-23 34-50 34-81 0-32-12-59-34-82-23-22-50-34-81-34h-93v-76h93c31 0 58-12 81-34 22-23 34-50 34-81 0-31-12-58-34-81-23-22-50-33-81-33h-93v-77h93c31 0 58-11 81-34 22-23 34-50 34-81 0-31-12-58-34-81-23-22-50-33-81-33h-93v-30c0-15 6-28 17-39 10-11 24-16 40-16h706c16 0 29 5 40 16 11 10 17 23 17 37v892c0 15-5 28-16 39a54 54 0 0 1-40 16z m-288-202c15-1 25-4 27-7 3-3 4-13 4-29 0-15 0-30 0-44-1-14-1-29-1-44 0-7-1-12-3-15-3-3-7-5-14-5-2 0-4-1-7-1-2 0-4-1-7-2-1 25-2 50-2 74a4600 4600 0 0 1-2 73h5z m148-607a2592 2592 0 0 1-54-1 2592 2592 0 0 0-54 0 28 28 0 0 0-12 2 59 59 0 0 0-10 7 692 692 0 0 0-85 107 676 676 0 0 0-61 123v2a704 704 0 0 0-29 135 638 638 0 0 0-1 136 32 32 0 0 0 4 13 17 17 0 0 0 9 6c15 12 30 23 44 34a1620 1620 0 0 0 43 33 34 34 0 0 0 15 9 27 27 0 0 0 17-1l2-34 2-34c1-13 2-25 2-37 0-12 1-25 2-37a33 33 0 0 0-2-12c-1-3-4-5-9-8-3-1-7-3-10-5-4-3-7-5-11-7-8-4-12-7-12-9l3-18c2-26 7-49 14-69s13-41 21-62c8-21 15-42 23-62 8-20 18-40 31-62 5-8 9-12 10-14 1-1 6-2 15-1 4 1 8 2 12 2 4 1 8 2 12 3a21 21 0 0 0 12-2c3-1 6-4 8-7 7-10 15-20 22-30 7-10 14-20 21-30 6-10 12-19 18-28 7-9 13-19 19-28a33 33 0 0 0-13-11 41 41 0 0 0-18-3z m52 38a13 13 0 0 1-3-2l-1-1c-15 19-30 38-45 57-14 20-29 39-44 59a27 27 0 0 0 6 5c3 1 5 2 7 3 5 4 10 5 14 4 4 0 7-3 11-9a2186 2186 0 0 1 56-67c11-12 16-20 16-25 0-4-6-12-17-24z m288 662h-82v-246h82c15 0 29 5 40 16 10 11 16 24 16 40v133c0 16-6 29-16 40a54 54 0 0 1-40 17z m-82-533h82c15 0 29 5 40 16 10 11 16 24 16 40v157l-138-1v-212z m0-275h82c15 0 29 6 40 17 10 11 16 24 16 39v158h-138v-214z m-740 731c0 18-6 33-19 46a63 63 0 0 1-46 19h-146c-18 0-33-6-46-19a63 63 0 0 1-19-46c0-18 6-34 19-47 13-13 28-20 46-20h145a64 64 0 0 1 46 20c14 13 20 29 20 47z m0-307c0 18-6 33-19 46a63 63 0 0 1-46 19h-146c-18 0-33-6-46-19a63 63 0 0 1-19-46c0-19 6-35 19-48 13-12 28-19 46-19h145c18 0 33 7 46 19 14 13 20 29 20 48z m0-306c0 18-6 33-19 46a63 63 0 0 1-46 19h-146c-18 0-33-6-46-19a63 63 0 0 1-19-46c0-18 6-34 19-47 13-13 28-20 46-20h145c18 0 33 7 46 20 14 12 20 28 20 47z" horiz-adv-x="1154" />

<glyph glyph-name="trash" unicode="&#xe81f;" d="M492 849a43 43 0 0 0 24-17c6-8 9-17 10-29h279c6 0 12-1 15-4a31 31 0 0 0 9-12c3-10 4-19 4-28 0-10-1-19-4-28a28 28 0 0 0-9-14 25 25 0 0 0-15-4h-776a25 25 0 0 0-15 4 28 28 0 0 0-9 12 93 93 0 0 0 0 59 31 31 0 0 0 8 12c4 3 9 5 15 5h276a29 29 0 0 0 3 10 39 39 0 0 0 11 23 50 50 0 0 0 20 12c26-1 52-1 77-1h77z m-54-182h133c-1-9-2-17-2-27a175157 175157 0 0 1-16-254 11055 11055 0 0 1-11-200c-3-39-6-79-8-119l-7-118v-8h42c0 1 1 1 1 2 0 0 0 1 0 1a23435 23435 0 0 0 11 180c2 33 4 67 6 101 3 38 5 75 8 113l7 113c2 36 4 72 6 108 2 36 4 72 6 108h177l-23-204c-8-68-15-136-23-204-7-68-15-136-22-204-8-68-15-137-22-205h-571c-7 68-14 135-21 204a3168910355 3168910355 0 0 1-44 409c-7 68-15 136-22 204h176v-6c2-18 3-36 3-54l3-54c1-29 3-58 5-86 2-29 4-58 5-86 2-35 5-68 7-101s4-67 6-100a8774 8774 0 0 1 11-200c1-6 2-13 2-19 0-6 0-13 1-19h43a35 35 0 0 1 0 7 999 999 0 0 0-4 54l-2 47a3232 3232 0 0 0-6 86 3566 3566 0 0 1-6 87 4602 4602 0 0 1-6 103c-2 34-4 68-5 102a35346 35346 0 0 0-10 146 664 664 0 0 0-3 48 1753 1753 0 0 1-1 46h132v-726h43v713c1 2 1 4 1 6v6z m-218 0a8 8 0 0 1 4 1 5 5 0 0 0 2 0c6 0 12 0 18 0 7-1 13-1 19-1h-43 0z m175 0a9 9 0 0 1 3 1 9 9 0 0 0 3 0c6 0 11 0 18 0 7-1 13-1 18-1h-42z m174 0a8 8 0 0 1 4 1 5 5 0 0 0 2 0c6 0 12 0 19 0 6-1 12-1 18-1h-43z" horiz-adv-x="833" />

<glyph glyph-name="plus" unicode="&#xe820;" d="M1000 475v-250h-375v-375h-250v375h-375v250h375v375h250v-375z" horiz-adv-x="1000" />

<glyph glyph-name="pin" unicode="&#xe822;" d="M667 492c0 49-9 96-27 139a369 369 0 0 1-71 114 340 340 0 0 1-106 77 300 300 0 0 1-129 28 303 303 0 0 1-130-28 340 340 0 0 1-106-77 369 369 0 0 1-72-114c-17-43-26-90-26-139v-3c0-73 16-145 46-219 31-74 65-140 102-199 37-59 70-108 101-145l46-57c5-5 11-10 18-14 7-3 14-5 21-5 6 0 13 1 20 4 7 3 13 8 18 15 1 2 17 22 48 60 30 38 64 88 101 147 37 60 70 126 100 198 31 73 46 144 46 215v3z" horiz-adv-x="667" />
</font>
</defs>
</svg>
