<svg width="68" height="24" viewBox="0 0 68 24" fill="none" xmlns="http://www.w3.org/2000/svg">
<path d="M29.4666 22.6862H23.9581L27.4035 1.38248H32.9117L29.4666 22.6862Z" fill="#00579F"/>
<path d="M49.4353 1.90329C48.3488 1.47224 46.6255 0.996307 44.4946 0.996307C39.0548 0.996307 35.2241 3.89709 35.2006 8.04434C35.1555 11.1042 37.9433 12.8037 40.0284 13.8239C42.1595 14.8664 42.884 15.5469 42.884 16.4762C42.8623 17.9034 41.1619 18.5613 39.5759 18.5613C37.3767 18.5613 36.1983 18.2221 34.4075 17.4281L33.6822 17.0877L32.9113 21.8699C34.2033 22.4585 36.5836 22.9808 39.0548 23.0037C44.8347 23.0037 48.5976 20.1478 48.6422 15.7283C48.6642 13.3031 47.1921 11.4448 44.0184 9.92638C42.0917 8.95162 40.9119 8.29435 40.9119 7.297C40.9344 6.39032 41.9098 5.46165 44.0846 5.46165C45.8754 5.41616 47.1912 5.84661 48.1879 6.27736L48.6861 6.50358L49.4353 1.90329Z" fill="#00579F"/>
<path d="M56.7566 15.1391C57.2102 13.9152 58.9558 9.17844 58.9558 9.17844C58.9329 9.22393 59.4086 7.93198 59.6806 7.13886L60.0655 8.97452C60.0655 8.97452 61.1087 14.0739 61.3352 15.1391C60.4743 15.1391 57.8446 15.1391 56.7566 15.1391ZM63.5561 1.38248H59.2953C57.9814 1.38248 56.9831 1.76744 56.4162 3.15006L48.2341 22.6859H54.0139C54.0139 22.6859 54.9655 20.0565 55.1701 19.4902C55.8041 19.4902 61.4268 19.4902 62.2425 19.4902C62.4006 20.2382 62.8998 22.6859 62.8998 22.6859H68.0001L63.5561 1.38248Z" fill="#00579F"/>
<path d="M19.3572 1.38248L13.9626 15.9096L13.3731 12.9633C12.3757 9.56371 9.24784 5.87011 5.75726 4.03355L10.6985 22.6636H16.5236L25.182 1.38248H19.3572Z" fill="#00579F"/>
<path d="M8.95327 1.38248H0.0906679L0 1.81292C6.91338 3.58081 11.492 7.84222 13.3731 12.9642L11.4465 3.17325C11.1293 1.81262 10.1546 1.42736 8.95327 1.38248Z" fill="#FAA61A"/>
</svg>
